<?xml version="1.0" encoding="UTF-8"?>
<svg id="Layer_1" data-name="Layer 1" xmlns="http://www.w3.org/2000/svg" viewBox="0 0 417.73 344.23">
  <defs>
    <style>
      .cls-1 {
        fill: #fff;
      }

      .cls-2 {
        fill: #177b6e;
      }
    </style>
  </defs>
  <g>
    <path class="cls-2" d="M161.57,245.99c12.67,8.76,28.23,26.01,36.42,39.08,1.26,2.01,10.65,20.61,11.57,19.91,11.11-25.69,30.64-48.64,54.01-64,2.68-1.76,7.86-4.3,11-6,1.16-.63,2.4-1.7,3-2,1.26-.64,2.75-1.41,4-2s3.39-1.3,5-2c7.23-3.12,29.38-11.44,36.27-10.78,3.72.35,15.99,11.55,19.73,14.78,5.19,4.48,25.56,22.05,28.05,26.45,1.11,1.95,1.15,3.39.95,5.55-41.31-1.47-83.52,4.01-119.68,24.83-7.22,4.16-15.04,9.14-20.31,15.68,9.51-4.6,18.73-9.63,28.73-13.26,36.07-13.07,79.67-16.39,117.63-11.14,2.37.33,22.56,3.81,15.64,8.41l-10.02.46c1.14-.13,1.66.47,2.32,1.25,3.53,4.18,9.21,9.81,12.08,13.85,9.38,13.24-9.7,4.59-16.2,3.2-46.84-10.07-92.28-11.03-137.73,5.69l-8.48,4.01c27.41-5.56,55.4-9.93,83.54-9.03,24.64.78,68.71,6.57,91.43,15.57,8.38,3.32,10.02,14.08,1.78,13.28-53.95-16.53-125.27-25.43-179.75-7.3-7.22,2.4-3.66,2.69-7.45,6.55-9.11,9.3-21.37,9.52-31.08.97-4.33-3.81-2.88-5.24-9.47-7.53-42.3-14.71-105.75-10.85-149.01-1.01-8.68,1.98-22.15,7.52-29.78,8.32s-6.75-7.19-2.23-11.34,38.06-10.62,46-12c36.29-6.3,71.81-7.6,108.21-1.16,8.71,1.54,17.13,4.11,25.81,5.67l-15.46-7.03c-40.29-13.7-81.23-13.26-122.72-5.65-3.77.69-26.82,6.7-27.82,5.68-1.61-7.65,12.33-14.88,13.99-20.52.89-3.01-5.27-.62-6.83-1.62-1.16-.74-1.27-3.72.28-4.91,3.57-2.76,28.35-5.68,34.03-5.99,37.19-2.02,76.18,2.55,110.22,17.86,4.88,2.2,9.28,5.38,14.32,7.17.04-2.43-3.33-4.13-5.09-5.4-31.22-22.68-70.1-32.2-108.37-33.63-3.64-.14-21.5,1.05-22.52.57-3.23-1.52-1.53-3.91-.01-6.03,4.97-6.91,20.9-20.44,27.99-26.5,4.61-3.94,15.86-14.55,21.3-14.65,10.07-.18,36.87,12.2,46.55,17.3,5.11,2.7,13.61,7.21,18.15,10.35ZM197.56,297.99c-1.37-6.53-6.63-13.51-10.58-18.91-16.47-22.49-42.29-39.04-68.16-48.84-4.36-1.65-15.82-6.18-19.79-6.3-5.68-.18-12.93,8.21-16.99,12.08-1.01.96-4.05.9-1.97,2.98,33.47,2.59,67.67,15.12,93.98,36.02,7.9,6.28,14.26,14.15,22.27,20.27l1.24,2.71ZM339.57,238.98c-3.05-3.48-14.63-14.73-18.48-15.08-3.37-.3-9.52,2.05-13.04,3.07-31.79,9.19-62.39,30.61-81.29,57.71-3.04,4.36-5.02,9.38-8.18,13.3,1.88.44,2.38-1.05,3.5-1.99,4.13-3.47,7.68-9.02,11.97-13.03,28.31-26.44,67-41.48,105.53-43.98ZM190.57,299.99c1.71-1.89-6.87-9.49-8.47-11.02-23.22-22.21-54.71-37.17-86.34-42.66-8.25-1.43-19.88-4.49-26.65.71-1.38,1.06-11.21,10.73-11.52,11.48-.86,2.04,1.39,1.41,2.48,1.49,39.8,2.91,67.71,3.01,104.19,22.83l26.32,17.17ZM361.57,259.98c-3.9-3.77-12.57-15.26-17.58-15.96s-20.72,2.13-26.63,3.26c-32.47,6.24-68.47,24.62-89.79,50.2-.94,1.12-2.42,1.62-1.99,3.5l15.47-11.02c35.65-22.73,78.41-31.61,120.53-29.98ZM28.57,303.98c50.4-11.78,104.2-11.98,152.98,6.52-34.66-21.99-78.84-27.81-119.52-25.55-3.74.21-12.87.93-15.93,2.07-5.05,1.87-13.15,12.95-17.53,16.96ZM388.57,303.98c.83-.64-12.67-14.67-13.94-15.55-3.5-2.42-12.93-3.21-17.52-3.48-33.6-1.99-67.79,2.01-99.22,13.86l-20.31,10.17c11.05-1.87,21.63-6.41,32.81-8.68,39.04-7.92,79.59-4.83,118.19,3.68ZM33.07,288.99v1c.65-.33.65-.67,0-1ZM194.56,303.99c.4-1.89-1.27-2.7-2.5-3.97-.24,1.08,2.1,4.82,2.5,3.97ZM185.56,305.99c.72-1.4-.63-2.67-.98-1.99-.72,1.4.63,2.67.98,1.99ZM230.57,306c-1.4-.72-2.67.63-1.99.98,1.4.72,2.67-.63,1.99-.98Z"/>
    <path class="cls-2" d="M356.28,68.98c-1.85-10.17-12.69-5.07-18.05-5.99-2.26-.39-4.2-2.86-6.53-3.51-24.24-6.77-76.01,47.31-95.8,60.93-.13.09-.28.15-.44.17-35.96,5.24-73.35,6.25-109.17,11.55-3.07.45-7.37.72-9.99,2.01-2.04,1-13.89,11.43-15.59,13.41-.62.72-1.35,2.17-1.55,3.38-.09.57.34,1.09.91,1.16l83.3,10.13c.86.1,1.22,1.14.62,1.76-2.89,2.92-7.21,8.43-9.03,8.9-3.19.82-12.77-6.85-22.32-4.4-2.47.63-9.55,5.33-10.52,7.57-1.03,2.39,1.74,5.13-.41,6.51-2.08,1.34-20.97,1.75-25.44,2.56-2.07.38-4.37.89-6.31,1.69-2.66,1.1-15.84,12.07-14.3,14.18,1.4,1.93,43.36,7.41,44.92,9.09.54.58-.18,8.98,4.85,11.87,10.82,6.23,30.94-3.27,41.59-8.09,15.45-6.99,29.89-16.06,44.24-25,.65-.4,1.49,0,1.58.76l3.98,33.71c.41,1.08.86,1.64,2.16,1.52,2.32-.22,24.13-15.64,26.45-18.39.06-.07.1-.15.14-.24l29.28-66.67c.07-.17.18-.31.33-.42,15.48-11.34,64.76-50.02,61.08-70.18ZM157.08,171.13c1.01,0,13.96,4.33,14.49,4.88,1.73,1.77-3.87,3.42-4.78,3.7-2.79.84-16.24,3.07-18.01,2.06-.31-.18-2.24-3.74-2.25-4.31-.04-2.53,8.28-6.34,10.54-6.33ZM284.87,149.71l-17.73,38.77c-.54,1.19-2.34.49-1.93-.75l8.52-26.17c.3-.91-.71-1.72-1.52-1.22-6.57,4.03-12.7,10.13-19.3,13.5-.01,0-.02.01-.03.02-1.13.59-2.13-.97-1.11-1.74l31.54-23.66c.86-.65,2.01.28,1.57,1.26ZM347.74,83.66c-1.35,2.47-8.12,12.01-10.19,12.86-.99.41-8.67-.76-11.47-.52-19.77,1.73-42.57,21.08-57.96,33.03-27.35,21.24-54.13,47.45-83.63,65.37-2.87,1.75-15.06,9.16-17.37,8.58-4.11-1.04,2.94-7.09,3.56-10.72.11-.66-.44-1.24-1.11-1.19l-26.43,1.96s-.05,0-.07,0c-7.65.12-15.35-.3-23-.03-.86.03-13.79,2.6-10.51-2,1.53-2.14,45.61-5.15,52.37-6.13,14.12-2.06,9.74-2.37,18.23-10.77,4.08-4.04,12.1-13,17.78-10.97,2.46.88.59,7.66,9.06,4.01.09-.04.18-.1.26-.16,13.7-11.43,29.19-21.09,41.5-34.03.66-.69.13-1.82-.82-1.76l-84.84,5.85c-9.49.21-19.07-.42-28.54-.04-.12,0-10.84.82-13.61,1.01.2-.05.38-.14.49-.25.14-.15.29-.29.49-.34,4.13-.85,8.44-.99,12.62-1.42,39.21-4.03,82.87-6.87,121.39-13.11,2.31-.37,4.51-1.21,6.77-1.74.53-.12.89-.63.81-1.16-.28-1.89-5.91-.53-7.61-1.74-.22-.15-.36-.35-.43-.6-.02-.02-.04-.03-.06-.05-.07.12-.18.22-.34.23-2.97.32,1.3-.26-1.12.61-.1.04-.22.08-.35.12-1.62.54-4.06.74-6.1.45-.87-.13-1.23-1.2-.58-1.8,17.24-16.09,35.94-30.47,54.98-44.35,1.26-.92,1.81-2.82,2.67-3.33.4-.23,8.62-2.86,8.95-2.54.13.13-.18,2.27.99,3.5,5.65,5.92,28.34-8.66,36.35-3.58,3.9,2.47-1.42,13.55-3.16,16.75Z"/>
    <path class="cls-2" d="M80.58,174.99c3.35-59.1,47.34-109.58,105.79-119.7,2.38-.41,16.73-2.47,17.59-2.22.06.02,9.31-.03,9.37.01.48-.27-7.55-.4-7-.49.17-.03.28-.04.3-.04.66,0,1.36-.11,1.88.08.48-.15.91-.01,1.5-.01,1.01,0-4.68-.48-3.99-.07l.29.25c20.43,1.14,44.12,5.8,62.49,14.49,2.56,1.21,9.01,5.88,10.69,6.26,3.23.72,5.35-3.84,3.88-6.35-.23-.39-6.59-4.02-7.77-4.71-16.49-9.66-36.13-14.7-55.04-16.96L208.59,0c-2.28,6.02-7.74,43.62-10.99,45.52-1.25.73-10.39,1.18-13.23,1.77-31.66,6.6-63.06,23.67-82.79,49.21-3.49,4.51-8.29,12.7-11.17,17.83-9.82,17.52-15.22,35.57-18.01,55.5l-52.81,9.16,52.8,9.2c1.48,5.44,1.6,11.16,2.85,16.65,1.11,4.87,4.28,17.67,6.51,21.48,1.96,3.34,4.83.67,7.83.66-3.77-14.79-9.21-29.51-9-44.99"/>
    <path class="cls-2" d="M336.58,181.99c.3,15.29-3.03,30.56-9.04,44.73.09.01.19.02.28.03.68-.4,1.51-.65,2.5-.65.56,0,1.07.08,1.54.22.32-.06,4.28.8,5.06,2.04,4.6-11.35,6.93-24.05,8.1-39.44l52.56-8.95-52.05-10.44c-2.56-11.94-3.81-24.13-8.47-35.53-1.07-2.62-4.59-10.85-7.01-11.09-9.1-.88-.25,14.14.99,18.11,3.51,11.29,6.2,23.06,5.54,34.97"/>
    <path class="cls-2" d="M33.07,338.99c.65.33.65.67,0,1v-1Z"/>
    <path class="cls-2" d="M291.57,98c.59,3.96-.33,8.39-4.99,8.99-1.57-3.89.04-9.5,4.99-8.99Z"/>
    <path class="cls-2" d="M281.08,106c1.9,2.2-2.23,10.69-4.54,7.99-1.55-1.81,2.18-10.73,4.54-7.99Z"/>
    <path class="cls-2" d="M301.57,91c.27,4.01-.18,8.01-4.99,7.99-.4-3.99-.2-8.41,4.99-7.99Z"/>
    <path class="cls-2" d="M271.57,114c0,4.43.68,9.29-4.99,7.99-.68-3.45.95-7.63,4.99-7.99Z"/>
  </g>
  <polygon class="cls-1" points="257.61 118.74 252.48 118.74 253.55 116.57 257.61 118.74"/>
</svg>